<?xml version="1.0" encoding="utf-8"?>
<!-- Generator: Adobe Illustrator 26.0.1, SVG Export Plug-In . SVG Version: 6.00 Build 0)  -->
<svg version="1.1" id="Capa_1" xmlns:sketch="http://www.bohemiancoding.com/sketch/ns"
	 xmlns="http://www.w3.org/2000/svg" xmlns:xlink="http://www.w3.org/1999/xlink" x="0px" y="0px" viewBox="0 0 17.2 17.2"
	 style="enable-background:new 0 0 17.2 17.2;" xml:space="preserve">
<style type="text/css">
	.st0{fill-rule:evenodd;clip-rule:evenodd;fill:#FFFFFF;}
</style>
<desc>Created with Sketch Beta.</desc>
<g id="Page-1" sketch:type="MSPage">
	<g id="Icon-Set" transform="translate(-516.000000, -983.000000)" sketch:type="MSLayerGroup">
		<path id="arrow-up-square" sketch:type="MSShapeGroup" class="st0" d="M517.2,985.3c0-0.6,0.5-1.1,1.1-1.1h12.6
			c0.6,0,1.1,0.5,1.1,1.1v12.6c0,0.6-0.5,1.1-1.1,1.1h-12.6c-0.6,0-1.1-0.5-1.1-1.1V985.3L517.2,985.3z M518.3,1000h12.6
			c1.2,0,2.1-0.9,2.1-2.1v-12.6c0-1.2-0.9-2.1-2.1-2.1h-12.6c-1.2,0-2.1,0.9-2.1,2.1v12.6C516.2,999,517.1,1000,518.3,1000
			L518.3,1000z M524.1,995.5c0.1,0.1,0.3,0.2,0.5,0.1c0.2,0,0.3,0,0.5-0.1l3-3c0.2-0.2,0.2-0.5,0-0.7c-0.2-0.2-0.5-0.2-0.7,0
			l-2.2,2.2v-5.6c0-0.3-0.2-0.5-0.5-0.5c-0.3,0-0.5,0.2-0.5,0.5v5.6l-2.2-2.2c-0.2-0.2-0.5-0.2-0.7,0c-0.2,0.2-0.2,0.5,0,0.7
			L524.1,995.5L524.1,995.5z"/>
	</g>
</g>
</svg>
